<svg xmlns="http://www.w3.org/2000/svg" viewBox="0 0 512 512" width="100%" height="100%">
  <path d="M160,192 V144 C160,91 203,48 256,48 C309,48 352,91 352,144 V192" fill="none" stroke="#B599FF" stroke-width="24" stroke-linecap="round"/>
  <path d="M112,192 H400 C400,192 416,336 256,448 C96,336 112,192 112,192 Z" fill="none" stroke="#B599FF" stroke-width="24" stroke-linejoin="round"/>
  
  <polygon points="256,310 350,260 256,210 162,260" fill="#1F323E"/>
  
  <polygon points="256,270 350,220 256,170 162,220" fill="#7751D9"/>
  
  <polygon points="256,230 350,180 256,130 162,180" fill="#2A2244" stroke="#B599FF" stroke-width="8" stroke-linejoin="round"/>
  
  <circle cx="256" cy="330" r="18" fill="#3CD3C1"/>
  <polygon points="244,342 268,342 274,380 238,380" fill="#3CD3C1"/>
</svg>
